<?xml version="1.0" ?><svg xmlns="http://www.w3.org/2000/svg" width="100" height="100" viewBox="0 0 100 100" fill="none"><path d="M36.9235 60.856C26.8209 60.8561 24 56.5138 24 50.0027C24 43.4916 27.7393 39.1387 36.9235 39.1387C46.1077 39.1387 44.2708 31 50.6997 31C57.1287 31 58.9655 39.1387 58.9655 50.0027C58.9655 60.8667 57.1287 69 50.6997 69C44.2708 69 47.0261 60.8559 36.9235 60.856Z" stroke="black" stroke-width="4"/><path fill-rule="evenodd" clip-rule="evenodd" d="M66.759 34.8989C67.6038 34.1873 68.8655 34.2953 69.5771 35.1401L68.0474 36.4286C69.5771 35.1401 69.577 35.14 69.5771 35.1401L69.5804 35.144L69.5867 35.1516L69.6081 35.1772C69.6262 35.1989 69.6518 35.2298 69.684 35.269C69.7486 35.3475 69.8402 35.4599 69.9524 35.6004C70.1763 35.8807 70.4849 36.2759 70.8263 36.739C71.4917 37.6416 72.3501 38.8933 72.9236 40.0853C74.4736 43.3071 75.4267 45.8104 75.4267 50C75.4267 54.1896 74.4736 56.6929 72.9236 59.9147C72.3501 61.1067 71.4917 62.3584 70.8263 63.261C70.4849 63.7241 70.1763 64.1193 69.9524 64.3996C69.8402 64.5401 69.7486 64.6525 69.684 64.731C69.6518 64.7702 69.6262 64.8011 69.6081 64.8228L69.5867 64.8484L69.5776 64.8592C69.5775 64.8594 69.5771 64.8599 68.0474 63.5714L69.5776 64.8592C68.866 65.7041 67.6038 65.8127 66.759 65.1011C65.9143 64.3896 65.8062 63.1282 66.5174 62.2834L66.5202 62.28L66.5342 62.2632C66.5473 62.2476 66.5676 62.223 66.5945 62.1904C66.6482 62.1251 66.7278 62.0274 66.8271 61.903C67.0263 61.6538 67.3022 61.3003 67.6067 60.8874C68.233 60.0378 68.9115 59.0276 69.319 58.1805C70.7324 55.2428 71.4267 53.3575 71.4267 50C71.4267 46.6425 70.7324 44.7572 69.319 41.8195C68.9115 40.9724 68.233 39.9622 67.6067 39.1126C67.3022 38.6997 67.0263 38.3462 66.8271 38.097C66.7278 37.9726 66.6482 37.8749 66.5945 37.8096C66.5676 37.777 66.5473 37.7524 66.5342 37.7368L66.5202 37.72L66.5177 37.717C65.8064 36.8722 65.9142 35.6104 66.759 34.8989Z" fill="black"/><path fill-rule="evenodd" clip-rule="evenodd" d="M63.3137 41.9529C64.2602 41.3835 65.4891 41.6891 66.0585 42.6356L64.3448 43.6667C66.0585 42.6356 66.0584 42.6355 66.0585 42.6356L66.0631 42.6432L66.0716 42.6575L66.0999 42.7054C66.1235 42.7455 66.1562 42.8018 66.196 42.8715C66.2753 43.0104 66.3839 43.2052 66.5041 43.4335C66.7347 43.8714 67.0472 44.5061 67.2608 45.1278C67.7971 46.6883 68.1379 47.9423 68.1379 50C68.1379 52.0577 67.7971 53.3117 67.2608 54.8722C67.0472 55.4939 66.7347 56.1286 66.5041 56.5665C66.3839 56.7948 66.2753 56.9896 66.196 57.1285C66.1562 57.1982 66.1235 57.2545 66.0999 57.2946L66.0716 57.3425L66.0631 57.3568L66.0587 57.3641C66.0586 57.3643 66.0585 57.3644 64.4861 56.4183L66.0587 57.3641C65.4892 58.3106 64.2602 58.6165 63.3137 58.0471C62.3676 57.4778 62.0618 56.2496 62.6304 55.3033C62.6306 55.3029 62.6308 55.3026 62.631 55.3023L64.3448 56.3333C62.631 55.3023 62.6311 55.3021 62.631 55.3023L62.6338 55.2977L62.6509 55.2687C62.6667 55.2417 62.691 55.2 62.7218 55.1461C62.7836 55.0378 62.8698 54.8833 62.9648 54.7028C63.1648 54.323 63.3646 53.9021 63.478 53.5722C63.9295 52.2583 64.1379 51.4643 64.1379 50C64.1379 48.5357 63.9295 47.7417 63.478 46.4278C63.3646 46.0979 63.1648 45.677 62.9648 45.2972C62.8698 45.1167 62.7836 44.9622 62.7218 44.8539C62.691 44.8 62.6667 44.7583 62.6509 44.7313L62.6338 44.7023L62.631 44.6977M63.3137 41.9529C62.3674 42.5223 62.0619 43.7513 62.631 44.6977Z" fill="black"/></svg>